<?xml version="1.0" encoding="UTF-8" standalone="no"?>
<!DOCTYPE svg PUBLIC "-//W3C//DTD SVG 1.1//EN"
 "http://www.w3.org/Graphics/SVG/1.1/DTD/svg11.dtd">
<!-- Generated by graphviz version 8.0.2 (20230410.1723)
 -->
<!-- Title: G Pages: 1 -->
<svg width="451pt" height="187pt"
 viewBox="0.00 0.00 451.20 187.20" xmlns="http://www.w3.org/2000/svg" xmlns:xlink="http://www.w3.org/1999/xlink">
<g id="graph0" class="graph" transform="scale(1 1) rotate(0) translate(21.6 165.6)">
<title>G</title>
<polygon fill="#111111" stroke="none" points="-21.6,21.6 -21.6,-165.6 429.6,-165.6 429.6,21.6 -21.6,21.6"/>
<!-- dependency_1.ts -->
<g id="node1" class="node">
<title>dependency_1.ts</title>
<path fill="none" stroke="#cfffac" d="M237.33,-144C237.33,-144 125.67,-144 125.67,-144 121.83,-144 118,-140.17 118,-136.33 118,-136.33 118,-128.67 118,-128.67 118,-124.83 121.83,-121 125.67,-121 125.67,-121 237.33,-121 237.33,-121 241.17,-121 245,-124.83 245,-128.67 245,-128.67 245,-136.33 245,-136.33 245,-140.17 241.17,-144 237.33,-144"/>
<text text-anchor="middle" x="181.5" y="-128.8" font-family="Arial" font-size="14.00" fill="#cfffac">dependency_1.ts</text>
</g>
<!-- dependency_2.ts -->
<g id="node2" class="node">
<title>dependency_2.ts</title>
<path fill="none" stroke="#c6c5fe" d="M237.33,-103C237.33,-103 125.67,-103 125.67,-103 121.83,-103 118,-99.17 118,-95.33 118,-95.33 118,-87.67 118,-87.67 118,-83.83 121.83,-80 125.67,-80 125.67,-80 237.33,-80 237.33,-80 241.17,-80 245,-83.83 245,-87.67 245,-87.67 245,-95.33 245,-95.33 245,-99.17 241.17,-103 237.33,-103"/>
<text text-anchor="middle" x="181.5" y="-87.8" font-family="Arial" font-size="14.00" fill="#c6c5fe">dependency_2.ts</text>
</g>
<!-- dependency_3.ts -->
<g id="node3" class="node">
<title>dependency_3.ts</title>
<path fill="none" stroke="#cfffac" d="M400.33,-83C400.33,-83 288.67,-83 288.67,-83 284.83,-83 281,-79.17 281,-75.33 281,-75.33 281,-67.67 281,-67.67 281,-63.83 284.83,-60 288.67,-60 288.67,-60 400.33,-60 400.33,-60 404.17,-60 408,-63.83 408,-67.67 408,-67.67 408,-75.33 408,-75.33 408,-79.17 404.17,-83 400.33,-83"/>
<text text-anchor="middle" x="344.5" y="-67.8" font-family="Arial" font-size="14.00" fill="#cfffac">dependency_3.ts</text>
</g>
<!-- dependency_2.ts&#45;&gt;dependency_3.ts -->
<g id="edge1" class="edge">
<title>dependency_2.ts&#45;&gt;dependency_3.ts</title>
<path fill="none" stroke="#757575" d="M245.21,-83.71C253.31,-82.7 261.67,-81.67 269.93,-80.64"/>
<polygon fill="#757575" stroke="#757575" points="270.21,-84.01 279.7,-79.3 269.34,-77.06 270.21,-84.01"/>
</g>
<!-- dependency_4.js -->
<g id="node4" class="node">
<title>dependency_4.js</title>
<path fill="none" stroke="#cfffac" d="M236.83,-23C236.83,-23 126.17,-23 126.17,-23 122.33,-23 118.5,-19.17 118.5,-15.33 118.5,-15.33 118.5,-7.67 118.5,-7.67 118.5,-3.83 122.33,0 126.17,0 126.17,0 236.83,0 236.83,0 240.67,0 244.5,-3.83 244.5,-7.67 244.5,-7.67 244.5,-15.33 244.5,-15.33 244.5,-19.17 240.67,-23 236.83,-23"/>
<text text-anchor="middle" x="181.5" y="-7.8" font-family="Arial" font-size="14.00" fill="#cfffac">dependency_4.js</text>
</g>
<!-- test_file.ts -->
<g id="node5" class="node">
<title>test_file.ts</title>
<path fill="none" stroke="#c6c5fe" d="M74.33,-83C74.33,-83 7.67,-83 7.67,-83 3.83,-83 0,-79.17 0,-75.33 0,-75.33 0,-67.67 0,-67.67 0,-63.83 3.83,-60 7.67,-60 7.67,-60 74.33,-60 74.33,-60 78.17,-60 82,-63.83 82,-67.67 82,-67.67 82,-75.33 82,-75.33 82,-79.17 78.17,-83 74.33,-83"/>
<text text-anchor="middle" x="41" y="-67.8" font-family="Arial" font-size="14.00" fill="#c6c5fe">test_file.ts</text>
</g>
<!-- test_file.ts&#45;&gt;dependency_1.ts -->
<g id="edge2" class="edge">
<title>test_file.ts&#45;&gt;dependency_1.ts</title>
<path fill="none" stroke="#757575" d="M61.5,-83.32C76.57,-92.13 98.13,-104.05 118,-112.5 121.62,-114.04 125.4,-115.53 129.23,-116.95"/>
<polygon fill="#757575" stroke="#757575" points="127.83,-120.52 138.42,-120.55 130.16,-113.92 127.83,-120.52"/>
</g>
<!-- test_file.ts&#45;&gt;dependency_2.ts -->
<g id="edge3" class="edge">
<title>test_file.ts&#45;&gt;dependency_2.ts</title>
<path fill="none" stroke="#757575" d="M82.43,-77.34C90.18,-78.46 98.51,-79.66 106.93,-80.88"/>
<polygon fill="#757575" stroke="#757575" points="106.21,-84.45 116.6,-82.42 107.21,-77.52 106.21,-84.45"/>
</g>
<!-- test_file.ts&#45;&gt;dependency_3.ts -->
<g id="edge4" class="edge">
<title>test_file.ts&#45;&gt;dependency_3.ts</title>
<path fill="none" stroke="#757575" d="M82.35,-71.5C130.16,-71.5 210.76,-71.5 269.8,-71.5"/>
<polygon fill="#757575" stroke="#757575" points="269.56,-75 279.56,-71.5 269.56,-68 269.56,-75"/>
</g>
<!-- test_file.ts&#45;&gt;dependency_4.js -->
<g id="edge5" class="edge">
<title>test_file.ts&#45;&gt;dependency_4.js</title>
<path fill="none" stroke="#757575" d="M68.3,-59.53C82.9,-52.93 101.41,-44.66 118,-37.5 125.58,-34.23 133.7,-30.8 141.5,-27.54"/>
<polygon fill="#757575" stroke="#757575" points="142.61,-30.45 150.49,-23.38 139.92,-23.99 142.61,-30.45"/>
</g>
</g>
</svg>
