<?xml version="1.0" encoding="UTF-8" standalone="no"?>
<!DOCTYPE svg PUBLIC "-//W3C//DTD SVG 1.1//EN"
 "http://www.w3.org/Graphics/SVG/1.1/DTD/svg11.dtd">
<!-- Generated by graphviz version 8.0.2 (20230410.1723)
 -->
<!-- Title: G Pages: 1 -->
<svg width="451pt" height="127pt"
 viewBox="0.00 0.00 451.20 127.20" xmlns="http://www.w3.org/2000/svg" xmlns:xlink="http://www.w3.org/1999/xlink">
<g id="graph0" class="graph" transform="scale(1 1) rotate(0) translate(21.6 105.6)">
<title>G</title>
<polygon fill="#111111" stroke="none" points="-21.6,21.6 -21.6,-105.6 429.6,-105.6 429.6,21.6 -21.6,21.6"/>
<!-- dependency_1.ts -->
<g id="node1" class="node">
<title>dependency_1.ts</title>
<path fill="none" stroke="#cfffac" d="M237.33,-84C237.33,-84 125.67,-84 125.67,-84 121.83,-84 118,-80.17 118,-76.33 118,-76.33 118,-68.67 118,-68.67 118,-64.83 121.83,-61 125.67,-61 125.67,-61 237.33,-61 237.33,-61 241.17,-61 245,-64.83 245,-68.67 245,-68.67 245,-76.33 245,-76.33 245,-80.17 241.17,-84 237.33,-84"/>
<text text-anchor="middle" x="181.5" y="-68.8" font-family="Arial" font-size="14.00" fill="#cfffac">dependency_1.ts</text>
</g>
<!-- dependency_2.ts -->
<g id="node2" class="node">
<title>dependency_2.ts</title>
<path fill="none" stroke="#c6c5fe" d="M237.33,-43C237.33,-43 125.67,-43 125.67,-43 121.83,-43 118,-39.17 118,-35.33 118,-35.33 118,-27.67 118,-27.67 118,-23.83 121.83,-20 125.67,-20 125.67,-20 237.33,-20 237.33,-20 241.17,-20 245,-23.83 245,-27.67 245,-27.67 245,-35.33 245,-35.33 245,-39.17 241.17,-43 237.33,-43"/>
<text text-anchor="middle" x="181.5" y="-27.8" font-family="Arial" font-size="14.00" fill="#c6c5fe">dependency_2.ts</text>
</g>
<!-- dependency_3.ts -->
<g id="node3" class="node">
<title>dependency_3.ts</title>
<path fill="none" stroke="#cfffac" d="M400.33,-23C400.33,-23 288.67,-23 288.67,-23 284.83,-23 281,-19.17 281,-15.33 281,-15.33 281,-7.67 281,-7.67 281,-3.83 284.83,0 288.67,0 288.67,0 400.33,0 400.33,0 404.17,0 408,-3.83 408,-7.67 408,-7.67 408,-15.33 408,-15.33 408,-19.17 404.17,-23 400.33,-23"/>
<text text-anchor="middle" x="344.5" y="-7.8" font-family="Arial" font-size="14.00" fill="#cfffac">dependency_3.ts</text>
</g>
<!-- dependency_2.ts&#45;&gt;dependency_3.ts -->
<g id="edge1" class="edge">
<title>dependency_2.ts&#45;&gt;dependency_3.ts</title>
<path fill="none" stroke="#757575" d="M245.21,-23.71C253.31,-22.7 261.67,-21.67 269.93,-20.64"/>
<polygon fill="#757575" stroke="#757575" points="270.21,-24.01 279.7,-19.3 269.34,-17.06 270.21,-24.01"/>
</g>
<!-- test_file.ts -->
<g id="node4" class="node">
<title>test_file.ts</title>
<path fill="none" stroke="#c6c5fe" d="M74.33,-43C74.33,-43 7.67,-43 7.67,-43 3.83,-43 0,-39.17 0,-35.33 0,-35.33 0,-27.67 0,-27.67 0,-23.83 3.83,-20 7.67,-20 7.67,-20 74.33,-20 74.33,-20 78.17,-20 82,-23.83 82,-27.67 82,-27.67 82,-35.33 82,-35.33 82,-39.17 78.17,-43 74.33,-43"/>
<text text-anchor="middle" x="41" y="-27.8" font-family="Arial" font-size="14.00" fill="#c6c5fe">test_file.ts</text>
</g>
<!-- test_file.ts&#45;&gt;dependency_1.ts -->
<g id="edge2" class="edge">
<title>test_file.ts&#45;&gt;dependency_1.ts</title>
<path fill="none" stroke="#757575" d="M82.43,-43.47C97.22,-47.85 114.15,-52.86 129.73,-57.47"/>
<polygon fill="#757575" stroke="#757575" points="128.67,-61.1 139.26,-60.59 130.66,-54.39 128.67,-61.1"/>
</g>
<!-- test_file.ts&#45;&gt;dependency_2.ts -->
<g id="edge3" class="edge">
<title>test_file.ts&#45;&gt;dependency_2.ts</title>
<path fill="none" stroke="#757575" d="M82.43,-31.5C90.09,-31.5 98.33,-31.5 106.65,-31.5"/>
<polygon fill="#757575" stroke="#757575" points="106.6,-35 116.6,-31.5 106.6,-28 106.6,-35"/>
</g>
<!-- test_file.ts&#45;&gt;dependency_3.ts -->
<g id="edge4" class="edge">
<title>test_file.ts&#45;&gt;dependency_3.ts</title>
<path fill="none" stroke="#757575" d="M79.5,-19.59C91.66,-16.28 105.28,-13.15 118,-11.5 168.29,-4.99 225.41,-5.07 269.59,-6.74"/>
<polygon fill="#757575" stroke="#757575" points="269.39,-10.27 279.53,-7.19 269.68,-3.28 269.39,-10.27"/>
</g>
</g>
</svg>
