<?xml version="1.0" encoding="UTF-8" standalone="no"?>
<!DOCTYPE svg PUBLIC "-//W3C//DTD SVG 1.1//EN"
 "http://www.w3.org/Graphics/SVG/1.1/DTD/svg11.dtd">
<!-- Generated by graphviz version 8.0.2 (20230410.1723)
 -->
<!-- Title: G Pages: 1 -->
<svg width="1217pt" height="248pt"
 viewBox="0.00 0.00 1217.20 248.20" xmlns="http://www.w3.org/2000/svg" xmlns:xlink="http://www.w3.org/1999/xlink">
<g id="graph0" class="graph" transform="scale(1 1) rotate(0) translate(21.6 226.6)">
<title>G</title>
<polygon fill="#111111" stroke="none" points="-21.6,21.6 -21.6,-226.6 1195.6,-226.6 1195.6,21.6 -21.6,21.6"/>
<!-- index.ts -->
<g id="node1" class="node">
<title>index.ts</title>
<path fill="none" stroke="#cfffac" d="M164.83,-23C164.83,-23 115.17,-23 115.17,-23 111.33,-23 107.5,-19.17 107.5,-15.33 107.5,-15.33 107.5,-7.67 107.5,-7.67 107.5,-3.83 111.33,0 115.17,0 115.17,0 164.83,0 164.83,0 168.67,0 172.5,-3.83 172.5,-7.67 172.5,-7.67 172.5,-15.33 172.5,-15.33 172.5,-19.17 168.67,-23 164.83,-23"/>
<text text-anchor="middle" x="140" y="-7.8" font-family="Arial" font-size="14.00" fill="#cfffac">index.ts</text>
</g>
<!-- lib/getChangedFileDependencies.ts -->
<g id="node2" class="node">
<title>lib/getChangedFileDependencies.ts</title>
<path fill="none" stroke="#cfffac" d="M254.33,-64C254.33,-64 25.67,-64 25.67,-64 21.83,-64 18,-60.17 18,-56.33 18,-56.33 18,-48.67 18,-48.67 18,-44.83 21.83,-41 25.67,-41 25.67,-41 254.33,-41 254.33,-41 258.17,-41 262,-44.83 262,-48.67 262,-48.67 262,-56.33 262,-56.33 262,-60.17 258.17,-64 254.33,-64"/>
<text text-anchor="middle" x="140" y="-48.8" font-family="Arial" font-size="14.00" fill="#cfffac">lib/getChangedFileDependencies.ts</text>
</g>
<!-- test/getChangedFileDependencies.test.ts -->
<g id="node3" class="node">
<title>test/getChangedFileDependencies.test.ts</title>
<path fill="none" stroke="#cfffac" d="M272.33,-105C272.33,-105 7.67,-105 7.67,-105 3.83,-105 0,-101.17 0,-97.33 0,-97.33 0,-89.67 0,-89.67 0,-85.83 3.83,-82 7.67,-82 7.67,-82 272.33,-82 272.33,-82 276.17,-82 280,-85.83 280,-89.67 280,-89.67 280,-97.33 280,-97.33 280,-101.17 276.17,-105 272.33,-105"/>
<text text-anchor="middle" x="140" y="-89.8" font-family="Arial" font-size="14.00" fill="#cfffac">test/getChangedFileDependencies.test.ts</text>
</g>
<!-- testFiles/CommonJs/dependency_1.ts -->
<g id="node4" class="node">
<title>testFiles/CommonJs/dependency_1.ts</title>
<path fill="none" stroke="#c6c5fe" d="M570.33,-205C570.33,-205 323.67,-205 323.67,-205 319.83,-205 316,-201.17 316,-197.33 316,-197.33 316,-189.67 316,-189.67 316,-185.83 319.83,-182 323.67,-182 323.67,-182 570.33,-182 570.33,-182 574.17,-182 578,-185.83 578,-189.67 578,-189.67 578,-197.33 578,-197.33 578,-201.17 574.17,-205 570.33,-205"/>
<text text-anchor="middle" x="447" y="-189.8" font-family="Arial" font-size="14.00" fill="#c6c5fe">testFiles/CommonJs/dependency_1.ts</text>
</g>
<!-- testFiles/CommonJs/dependency_2.ts -->
<g id="node5" class="node">
<title>testFiles/CommonJs/dependency_2.ts</title>
<path fill="none" stroke="#c6c5fe" d="M868.33,-167C868.33,-167 621.67,-167 621.67,-167 617.83,-167 614,-163.17 614,-159.33 614,-159.33 614,-151.67 614,-151.67 614,-147.83 617.83,-144 621.67,-144 621.67,-144 868.33,-144 868.33,-144 872.17,-144 876,-147.83 876,-151.67 876,-151.67 876,-159.33 876,-159.33 876,-163.17 872.17,-167 868.33,-167"/>
<text text-anchor="middle" x="745" y="-151.8" font-family="Arial" font-size="14.00" fill="#c6c5fe">testFiles/CommonJs/dependency_2.ts</text>
</g>
<!-- testFiles/CommonJs/dependency_1.ts&#45;&gt;testFiles/CommonJs/dependency_2.ts -->
<g id="edge1" class="edge">
<title>testFiles/CommonJs/dependency_1.ts&#45;&gt;testFiles/CommonJs/dependency_2.ts</title>
<path fill="none" stroke="#757575" d="M541.25,-181.53C572.61,-177.5 607.8,-172.99 639.94,-168.86"/>
<polygon fill="#757575" stroke="#757575" points="640.24,-172.22 649.71,-167.48 639.35,-165.28 640.24,-172.22"/>
</g>
<!-- testFiles/CommonJs/dependency_3.ts -->
<g id="node6" class="node">
<title>testFiles/CommonJs/dependency_3.ts</title>
<path fill="none" stroke="#cfffac" d="M1166.33,-147C1166.33,-147 919.67,-147 919.67,-147 915.83,-147 912,-143.17 912,-139.33 912,-139.33 912,-131.67 912,-131.67 912,-127.83 915.83,-124 919.67,-124 919.67,-124 1166.33,-124 1166.33,-124 1170.17,-124 1174,-127.83 1174,-131.67 1174,-131.67 1174,-139.33 1174,-139.33 1174,-143.17 1170.17,-147 1166.33,-147"/>
<text text-anchor="middle" x="1043" y="-131.8" font-family="Arial" font-size="14.00" fill="#cfffac">testFiles/CommonJs/dependency_3.ts</text>
</g>
<!-- testFiles/CommonJs/dependency_2.ts&#45;&gt;testFiles/CommonJs/dependency_3.ts -->
<g id="edge2" class="edge">
<title>testFiles/CommonJs/dependency_2.ts&#45;&gt;testFiles/CommonJs/dependency_3.ts</title>
<path fill="none" stroke="#757575" d="M876.26,-146.7C884.46,-146.14 892.73,-145.59 900.97,-145.03"/>
<polygon fill="#757575" stroke="#757575" points="901.04,-148.47 910.78,-144.3 900.56,-141.48 901.04,-148.47"/>
</g>
<!-- testFiles/CommonJs/dependency_4.js -->
<g id="node7" class="node">
<title>testFiles/CommonJs/dependency_4.js</title>
<path fill="none" stroke="#cfffac" d="M569.83,-87C569.83,-87 324.17,-87 324.17,-87 320.33,-87 316.5,-83.17 316.5,-79.33 316.5,-79.33 316.5,-71.67 316.5,-71.67 316.5,-67.83 320.33,-64 324.17,-64 324.17,-64 569.83,-64 569.83,-64 573.67,-64 577.5,-67.83 577.5,-71.67 577.5,-71.67 577.5,-79.33 577.5,-79.33 577.5,-83.17 573.67,-87 569.83,-87"/>
<text text-anchor="middle" x="447" y="-71.8" font-family="Arial" font-size="14.00" fill="#cfffac">testFiles/CommonJs/dependency_4.js</text>
</g>
<!-- testFiles/CommonJs/test_file.ts -->
<g id="node8" class="node">
<title>testFiles/CommonJs/test_file.ts</title>
<path fill="none" stroke="#c6c5fe" d="M240.83,-146C240.83,-146 39.17,-146 39.17,-146 35.33,-146 31.5,-142.17 31.5,-138.33 31.5,-138.33 31.5,-130.67 31.5,-130.67 31.5,-126.83 35.33,-123 39.17,-123 39.17,-123 240.83,-123 240.83,-123 244.67,-123 248.5,-126.83 248.5,-130.67 248.5,-130.67 248.5,-138.33 248.5,-138.33 248.5,-142.17 244.67,-146 240.83,-146"/>
<text text-anchor="middle" x="140" y="-130.8" font-family="Arial" font-size="14.00" fill="#c6c5fe">testFiles/CommonJs/test_file.ts</text>
</g>
<!-- testFiles/CommonJs/test_file.ts&#45;&gt;testFiles/CommonJs/dependency_1.ts -->
<g id="edge3" class="edge">
<title>testFiles/CommonJs/test_file.ts&#45;&gt;testFiles/CommonJs/dependency_1.ts</title>
<path fill="none" stroke="#757575" d="M202.72,-146.44C252.15,-156 321.57,-169.43 373.61,-179.5"/>
<polygon fill="#757575" stroke="#757575" points="372.63,-183.06 383.11,-181.53 373.96,-176.19 372.63,-183.06"/>
</g>
<!-- testFiles/CommonJs/test_file.ts&#45;&gt;testFiles/CommonJs/dependency_2.ts -->
<g id="edge4" class="edge">
<title>testFiles/CommonJs/test_file.ts&#45;&gt;testFiles/CommonJs/dependency_2.ts</title>
<path fill="none" stroke="#757575" d="M248.8,-138.25C347.65,-141.7 494.66,-146.82 602.83,-150.58"/>
<polygon fill="#757575" stroke="#757575" points="602.39,-154.11 612.51,-150.96 602.64,-147.11 602.39,-154.11"/>
</g>
<!-- testFiles/CommonJs/test_file.ts&#45;&gt;testFiles/CommonJs/dependency_3.ts -->
<g id="edge5" class="edge">
<title>testFiles/CommonJs/test_file.ts&#45;&gt;testFiles/CommonJs/dependency_3.ts</title>
<path fill="none" stroke="#757575" d="M248.79,-134.62C411.52,-134.8 720.04,-135.14 900.61,-135.34"/>
<polygon fill="#757575" stroke="#757575" points="900.51,-138.84 910.52,-135.36 900.52,-131.84 900.51,-138.84"/>
</g>
<!-- testFiles/CommonJs/test_file.ts&#45;&gt;testFiles/CommonJs/dependency_4.js -->
<g id="edge6" class="edge">
<title>testFiles/CommonJs/test_file.ts&#45;&gt;testFiles/CommonJs/dependency_4.js</title>
<path fill="none" stroke="#757575" d="M241.32,-122.56C254.41,-120.27 267.58,-117.6 280,-114.5 296.5,-110.38 299.61,-106.07 316,-101.5 331.82,-97.09 348.93,-93.11 365.37,-89.68"/>
<polygon fill="#757575" stroke="#757575" points="365.96,-92.93 375.06,-87.5 364.56,-86.07 365.96,-92.93"/>
</g>
</g>
</svg>
